<svg width="22" height="22" viewBox="0 0 22 22" fill="none" xmlns="http://www.w3.org/2000/svg">
<path d="M3.90503 10.1017V14.6575C3.90503 16.3258 3.90503 16.3258 5.4817 17.3892L9.81753 19.8917C10.4684 20.2675 11.5317 20.2675 12.1825 19.8917L16.5184 17.3892C18.095 16.3258 18.095 16.3258 18.095 14.6575V10.1017C18.095 8.43334 18.095 8.43334 16.5184 7.37001L12.1825 4.86751C11.5317 4.49167 10.4684 4.49167 9.81753 4.86751L5.4817 7.37001C3.90503 8.43334 3.90503 8.43334 3.90503 10.1017Z" stroke="#FFFFFF" stroke-width="1.5" stroke-linecap="round" stroke-linejoin="round"/>
<path d="M16.0416 6.99418V4.58334C16.0416 2.75001 15.1249 1.83334 13.2916 1.83334H8.70825C6.87492 1.83334 5.95825 2.75001 5.95825 4.58334V6.93001M11.5774 10.0742L12.0999 10.89C12.1824 11.0183 12.3658 11.1467 12.5033 11.1833L13.4383 11.4217C14.0158 11.5683 14.1716 12.0633 13.7958 12.5217L13.1816 13.2642C13.0899 13.3833 13.0166 13.5942 13.0258 13.7408L13.0808 14.7033C13.1174 15.2992 12.6958 15.6017 12.1458 15.3817L11.2474 15.0242C11.0839 14.9692 10.9068 14.9692 10.7433 15.0242L9.84492 15.3817C9.29492 15.6017 8.87325 15.29 8.90992 14.7033L8.96492 13.7408C8.97408 13.5942 8.90075 13.3742 8.80908 13.2642L8.19492 12.5217C7.81908 12.0633 7.97492 11.5683 8.55242 11.4217L9.48742 11.1833C9.63409 11.1467 9.81742 11.0092 9.89075 10.89L10.4133 10.0742C10.7433 9.57918 11.2566 9.57918 11.5774 10.0742Z" stroke="#FFFFFF" stroke-width="1.5" stroke-linecap="round" stroke-linejoin="round"/>
</svg>
