<svg width="19" height="19" viewBox="0 0 19 19" fill="none" xmlns="http://www.w3.org/2000/svg">
<path d="M9.5 3.80376V16.9288M5.78125 6.42876H3.8125M6.4375 9.05376H3.8125M18.25 13.6475V3.08626C18.25 2.03626 17.3925 1.25751 16.3512 1.34501H16.2988C14.4613 1.50251 11.67 2.43876 10.1125 3.41876L9.96375 3.51501C9.71 3.67251 9.29 3.67251 9.03625 3.51501L8.8175 3.38376C7.26 2.41251 4.4775 1.48501 2.64 1.33626C1.59875 1.24876 0.75 2.03626 0.75 3.07751V13.6475C0.75 14.4875 1.4325 15.275 2.2725 15.38L2.52625 15.415C4.425 15.6688 7.35625 16.6313 9.03625 17.55L9.07125 17.5675C9.3075 17.6988 9.68375 17.6988 9.91125 17.5675C11.5913 16.64 14.5313 15.6688 16.4388 15.415L16.7275 15.38C17.5675 15.275 18.25 14.4875 18.25 13.6475Z" stroke="#4B4B4B" stroke-width="1.5" stroke-linecap="round" stroke-linejoin="round"/>
</svg>
