<?xml version="1.0" ?>
<!-- Uploaded to: SVG Repo, www.svgrepo.com, Generator: SVG Repo Mixer Tools -->
<svg width="800px" height="800px" viewBox="0 0 8.4666669 8.4666669" id="svg8" version="1.1" xmlns="http://www.w3.org/2000/svg" xmlns:cc="http://creativecommons.org/ns#" xmlns:dc="http://purl.org/dc/elements/1.1/" xmlns:inkscape="http://www.inkscape.org/namespaces/inkscape" xmlns:rdf="http://www.w3.org/1999/02/22-rdf-syntax-ns#" xmlns:sodipodi="http://sodipodi.sourceforge.net/DTD/sodipodi-0.dtd" xmlns:svg="http://www.w3.org/2000/svg">
<defs id="defs2"/>
<g id="layer1" transform="translate(0,-288.53332)">
<path d="M 10,4 C 9.6212087,3.9999741 9.27491,4.2139535 9.1054688,4.5527344 L 7.3828125,8 H 2 C 1.4477381,8.0000552 1.0000552,8.4477381 1,9 v 18 c 5.52e-5,0.552262 0.4477381,0.999945 1,1 h 28 c 0.552262,-5.5e-5 0.999945,-0.447738 1,-1 V 9 C 30.999945,8.4477381 30.552262,8.0000552 30,8 H 24.617188 L 22.894531,4.5527344 C 22.72509,4.2139535 22.378791,3.9999742 22,4 Z m 0.617188,2 h 10.765624 l 1,2 H 9.6171875 Z M 3,10 H 29 V 26 H 3 Z" id="rect823" style="color:#FFFFFF;font-style:normal;font-variant:normal;font-weight:normal;font-stretch:normal;font-size:medium;line-height:normal;font-family:sans-serif;font-variant-ligatures:normal;font-variant-position:normal;font-variant-caps:normal;font-variant-numeric:normal;font-variant-alternates:normal;font-feature-settings:normal;text-indent:0;text-align:start;text-decoration:none;text-decoration-line:none;text-decoration-style:solid;text-decoration-color:#FFFFFF;letter-spacing:normal;word-spacing:normal;text-transform:none;writing-mode:lr-tb;direction:ltr;text-orientation:mixed;dominant-baseline:auto;baseline-shift:baseline;text-anchor:start;white-space:normal;shape-padding:0;clip-rule:nonzero;display:inline;overflow:visible;visibility:visible;opacity:1;isolation:auto;mix-blend-mode:normal;color-interpolation:sRGB;color-interpolation-filters:linearRGB;solid-color:#FFFFFF;solid-opacity:1;vector-effect:none;fill:#FFFFFF;fill-opacity:1;fill-rule:nonzero;stroke:none;stroke-width:1.99999988;stroke-linecap:round;stroke-linejoin:round;stroke-miterlimit:4;stroke-dasharray:none;stroke-dashoffset:0;stroke-opacity:1;paint-order:stroke fill markers;color-rendering:auto;image-rendering:auto;shape-rendering:auto;text-rendering:auto;enable-background:accumulate" transform="matrix(0.26458333,0,0,0.26458333,0,288.53332)"/>
<path d="m 4.2324219,291.70898 c -0.8736181,0 -1.5859375,0.71232 -1.5859375,1.58594 0,0.87362 0.7123194,1.58789 1.5859375,1.58789 0.8736181,0 1.5878906,-0.71427 1.5878906,-1.58789 0,-0.87362 -0.7142725,-1.58594 -1.5878906,-1.58594 z m 0,0.5293 c 0.5876352,0 1.0585937,0.46901 1.0585937,1.05664 0,0.58764 -0.4709585,1.0586 -1.0585937,1.0586 -0.5876353,0 -1.0566407,-0.47096 -1.0566407,-1.0586 0,-0.58763 0.4690054,-1.05664 1.0566407,-1.05664 z" id="path845" style="color:#FFFFFF;font-style:normal;font-variant:normal;font-weight:normal;font-stretch:normal;font-size:medium;line-height:normal;font-family:sans-serif;font-variant-ligatures:normal;font-variant-position:normal;font-variant-caps:normal;font-variant-numeric:normal;font-variant-alternates:normal;font-feature-settings:normal;text-indent:0;text-align:start;text-decoration:none;text-decoration-line:none;text-decoration-style:solid;text-decoration-color:#FFFFFF;letter-spacing:normal;word-spacing:normal;text-transform:none;writing-mode:lr-tb;direction:ltr;text-orientation:mixed;dominant-baseline:auto;baseline-shift:baseline;text-anchor:start;white-space:normal;shape-padding:0;clip-rule:nonzero;display:inline;overflow:visible;visibility:visible;opacity:1;isolation:auto;mix-blend-mode:normal;color-interpolation:sRGB;color-interpolation-filters:linearRGB;solid-color:#FFFFFF;solid-opacity:1;vector-effect:none;fill:#FFFFFF;fill-opacity:1;fill-rule:nonzero;stroke:none;stroke-width:0.52916664;stroke-linecap:round;stroke-linejoin:round;stroke-miterlimit:4;stroke-dasharray:none;stroke-dashoffset:0;stroke-opacity:1;paint-order:stroke fill markers;color-rendering:auto;image-rendering:auto;shape-rendering:auto;text-rendering:auto;enable-background:accumulate"/>
<path d="M 1.8520833,291.9729 A 0.26458332,0.26458332 0 0 1 1.5875,292.23748 0.26458332,0.26458332 0 0 1 1.3229167,291.9729 0.26458332,0.26458332 0 0 1 1.5875,291.70832 0.26458332,0.26458332 0 0 1 1.8520833,291.9729 Z" id="path847" style="opacity:1;fill:#FFFFFF;fill-opacity:1;stroke:none;stroke-width:0.52916664;stroke-linecap:round;stroke-linejoin:round;stroke-miterlimit:4;stroke-dasharray:none;stroke-dashoffset:0;stroke-opacity:1;paint-order:stroke fill markers"/>
</g>
</svg>