<svg width="21" height="21" viewBox="0 0 21 21" fill="none" xmlns="http://www.w3.org/2000/svg">
<path d="M7.875 19.25H13.125C17.5 19.25 19.25 17.5 19.25 13.125V7.875C19.25 3.5 17.5 1.75 13.125 1.75H7.875C3.5 1.75 1.75 3.5 1.75 7.875V13.125C1.75 17.5 3.5 19.25 7.875 19.25Z" stroke="#FFFFFF" stroke-width="1.5" stroke-linecap="round" stroke-linejoin="round"/>
<path d="M13.5625 8.53125C13.9106 8.53125 14.2444 8.39297 14.4906 8.14683C14.7367 7.90069 14.875 7.56685 14.875 7.21875C14.875 6.87065 14.7367 6.53681 14.4906 6.29067C14.2444 6.04453 13.9106 5.90625 13.5625 5.90625C13.2144 5.90625 12.8806 6.04453 12.6344 6.29067C12.3883 6.53681 12.25 6.87065 12.25 7.21875C12.25 7.56685 12.3883 7.90069 12.6344 8.14683C12.8806 8.39297 13.2144 8.53125 13.5625 8.53125ZM7.4375 8.53125C7.7856 8.53125 8.11944 8.39297 8.36558 8.14683C8.61172 7.90069 8.75 7.56685 8.75 7.21875C8.75 6.87065 8.61172 6.53681 8.36558 6.29067C8.11944 6.04453 7.7856 5.90625 7.4375 5.90625C7.0894 5.90625 6.75556 6.04453 6.50942 6.29067C6.26328 6.53681 6.125 6.87065 6.125 7.21875C6.125 7.56685 6.26328 7.90069 6.50942 8.14683C6.75556 8.39297 7.0894 8.53125 7.4375 8.53125ZM7.35 11.6375H13.65C14.0875 11.6375 14.4375 11.9875 14.4375 12.425C14.4375 14.6038 12.6788 16.3625 10.5 16.3625C8.32125 16.3625 6.5625 14.6038 6.5625 12.425C6.5625 11.9875 6.9125 11.6375 7.35 11.6375Z" stroke="#FFFFFF" stroke-width="1.5" stroke-miterlimit="10" stroke-linecap="round" stroke-linejoin="round"/>
</svg>
