<svg width="20" height="20" viewBox="0 0 20 20" fill="none" xmlns="http://www.w3.org/2000/svg">
<g clip-path="url(#clip0_785_196)">
<path d="M7.50008 18.3333H12.5001C16.6667 18.3333 18.3334 16.6666 18.3334 12.5V7.49996C18.3334 3.33329 16.6667 1.66663 12.5001 1.66663H7.50008C3.33341 1.66663 1.66675 3.33329 1.66675 7.49996V12.5C1.66675 16.6666 3.33341 18.3333 7.50008 18.3333Z" stroke="white" stroke-width="1.5" stroke-linecap="round" stroke-linejoin="round"/>
<path d="M12.9166 8.125C13.2481 8.125 13.566 7.9933 13.8005 7.75888C14.0349 7.52446 14.1666 7.20652 14.1666 6.875C14.1666 6.54348 14.0349 6.22554 13.8005 5.99112C13.566 5.7567 13.2481 5.625 12.9166 5.625C12.5851 5.625 12.2671 5.7567 12.0327 5.99112C11.7983 6.22554 11.6666 6.54348 11.6666 6.875C11.6666 7.20652 11.7983 7.52446 12.0327 7.75888C12.2671 7.9933 12.5851 8.125 12.9166 8.125ZM7.08325 8.125C7.41477 8.125 7.73272 7.9933 7.96714 7.75888C8.20156 7.52446 8.33325 7.20652 8.33325 6.875C8.33325 6.54348 8.20156 6.22554 7.96714 5.99112C7.73272 5.7567 7.41477 5.625 7.08325 5.625C6.75173 5.625 6.43379 5.7567 6.19937 5.99112C5.96495 6.22554 5.83325 6.54348 5.83325 6.875C5.83325 7.20652 5.96495 7.52446 6.19937 7.75888C6.43379 7.9933 6.75173 8.125 7.08325 8.125ZM6.99992 11.0833H12.9999C13.4166 11.0833 13.7499 11.4167 13.7499 11.8333C13.7499 13.9083 12.0749 15.5833 9.99992 15.5833C7.92492 15.5833 6.24992 13.9083 6.24992 11.8333C6.24992 11.4167 6.58325 11.0833 6.99992 11.0833Z" stroke="white" stroke-width="1.5" stroke-miterlimit="10" stroke-linecap="round" stroke-linejoin="round"/>
</g>
<defs>
<clipPath id="clip0_785_196">
<rect width="20" height="20" fill="white"/>
</clipPath>
</defs>
</svg>
