<svg width="100" height="94" viewBox="0 0 100 94" fill="none" xmlns="http://www.w3.org/2000/svg">
<path d="M49.9993 17.1753L45.5181 12.5691C34.9993 1.75655 15.7118 5.4878 8.74934 19.0816C5.48059 25.4753 4.74309 34.7066 10.7118 46.4878C16.4618 57.8316 28.4243 71.4191 49.9993 86.2191C71.5743 71.4191 83.5306 57.8316 89.2868 46.4878C95.2556 34.7003 94.5243 25.4753 91.2493 19.0816C84.2868 5.4878 64.9993 1.7503 54.4806 12.5628L49.9993 17.1753ZM49.9993 93.7503C-45.8319 30.4253 20.4931 -18.9997 48.8993 7.14405C49.2743 7.4878 49.6431 7.84405 49.9993 8.2128C50.352 7.84439 50.7189 7.48995 51.0993 7.1503C79.4993 -19.0122 145.831 30.4191 49.9993 93.7503Z" fill="#4B4B4B"/>
</svg>
