<svg width="22" height="22" viewBox="0 0 22 22" fill="none" xmlns="http://www.w3.org/2000/svg">
<path d="M15.0426 3.66667C16.8209 3.66667 18.2509 5.10583 18.2509 6.875C18.2509 8.6075 16.8759 10.0192 15.1617 10.0833C15.0826 10.0742 15.0026 10.0742 14.9234 10.0833M16.8117 18.3333C17.4717 18.1958 18.0951 17.93 18.6084 17.5358C20.0384 16.4633 20.0384 14.6942 18.6084 13.6217C18.1042 13.2367 17.4901 12.98 16.8392 12.8333M8.39674 9.96417C8.30508 9.955 8.19508 9.955 8.09424 9.96417C7.0421 9.92844 6.04516 9.4846 5.31457 8.72663C4.58397 7.96866 4.17709 6.95608 4.18008 5.90333C4.18008 3.6575 5.99508 1.83333 8.25008 1.83333C9.32829 1.81389 10.3701 2.22355 11.1462 2.97221C11.9224 3.72087 12.3694 4.7472 12.3888 5.82542C12.4083 6.90363 11.9986 7.94541 11.2499 8.72158C10.5013 9.49775 9.47496 9.94472 8.39674 9.96417ZM3.81341 13.3467C1.59507 14.8317 1.59507 17.2517 3.81341 18.7275C6.33424 20.4142 10.4684 20.4142 12.9892 18.7275C15.2076 17.2425 15.2076 14.8225 12.9892 13.3467C10.4776 11.6692 6.34341 11.6692 3.81341 13.3467Z" stroke="#4B4B4B" stroke-width="1.5" stroke-linecap="round" stroke-linejoin="round"/>
</svg>
