<svg width="22" height="22" viewBox="0 0 22 22" fill="none" xmlns="http://www.w3.org/2000/svg">
<path d="M18.3059 9.16665H3.63925V16.5C3.63925 19.25 4.55591 20.1667 7.30591 20.1667H14.6392C17.3892 20.1667 18.3059 19.25 18.3059 16.5V9.16665ZM19.7084 6.41665V7.33332C19.7084 8.34165 19.2226 9.16665 17.8751 9.16665H4.12508C2.72258 9.16665 2.29175 8.34165 2.29175 7.33332V6.41665C2.29175 5.40832 2.72258 4.58332 4.12508 4.58332H17.8751C19.2226 4.58332 19.7084 5.40832 19.7084 6.41665ZM10.6701 4.58332H5.61008C5.45936 4.41984 5.37798 4.20423 5.38311 3.98193C5.38824 3.75963 5.47947 3.548 5.63758 3.39165L6.93925 2.08999C7.10399 1.92709 7.32632 1.83572 7.558 1.83572C7.78968 1.83572 8.01201 1.92709 8.17675 2.08999L10.6701 4.58332ZM16.3809 4.58332H11.3209L13.8142 2.08999C13.979 1.92709 14.2013 1.83572 14.433 1.83572C14.6647 1.83572 14.887 1.92709 15.0517 2.08999L16.3534 3.39165C16.6834 3.72165 16.6926 4.24415 16.3809 4.58332Z" stroke="#4B4B4B" stroke-width="1.5" stroke-miterlimit="10" stroke-linecap="round" stroke-linejoin="round"/>
<path d="M8.19507 9.16666V13.8783C8.19507 14.6117 9.00174 15.0425 9.6159 14.6483L10.4776 14.08C10.6272 13.9814 10.8025 13.9289 10.9817 13.9289C11.1609 13.9289 11.3362 13.9814 11.4859 14.08L12.3017 14.63C12.4394 14.7218 12.5994 14.7744 12.7647 14.7824C12.9299 14.7904 13.0942 14.7533 13.2401 14.6752C13.3859 14.5971 13.5078 14.4809 13.5928 14.3389C13.6778 14.197 13.7226 14.0346 13.7226 13.8692V9.16666H8.19507Z" stroke="#4B4B4B" stroke-width="1.5" stroke-miterlimit="10" stroke-linecap="round" stroke-linejoin="round"/>
</svg>
