<svg width="22" height="22" viewBox="0 0 22 22" fill="none" xmlns="http://www.w3.org/2000/svg">
<path d="M21.2317 16.0191L12.7211 11.9104C12.2393 11.5881 11.9182 11.0242 11.9182 10.4602C11.9182 9.81571 12.2393 9.33233 12.6408 9.01007C13.8451 8.36556 14.4874 6.99597 14.2466 5.62638C14.0057 4.33736 12.9619 3.29003 11.6773 3.04834C10.7138 2.88721 9.75037 3.1289 9.02777 3.77341C8.30517 4.33736 7.90373 5.22356 7.90373 6.19033V6.99597C7.90373 7.47936 8.22488 7.80161 8.70662 7.80161C9.18835 7.80161 9.50951 7.47936 9.50951 6.99597V6.19033C9.50951 5.70695 9.75037 5.22356 10.0715 4.98187C10.473 4.65962 10.8744 4.57905 11.4364 4.65962C12.0788 4.74018 12.6408 5.30413 12.7211 5.94864C12.8816 6.67372 12.5605 7.31823 11.9182 7.64048C10.9547 8.20443 10.3124 9.25176 10.3124 10.4602C10.3124 10.7825 10.3124 11.0242 10.3927 11.3464L0.918587 16.0191C0.276275 16.3414 -0.12517 17.0665 0.0354084 17.7915C0.195986 18.5166 0.838298 19 1.5609 19H20.3485C21.1514 19 21.7134 18.5166 21.874 17.7915C22.1952 17.0665 21.874 16.3414 21.2317 16.0191ZM1.64119 17.4693L11.1956 12.716C11.4364 12.9577 11.6773 13.1188 11.9182 13.3605L20.5091 17.4693H1.64119Z" fill="#4B4B4B"/>
</svg>
