<svg width="22" height="22" viewBox="0 0 22 22" fill="none" xmlns="http://www.w3.org/2000/svg">
<path d="M8.22258 20.1667H13.7226C18.3059 20.1667 20.1392 18.3333 20.1392 13.75V8.25001C20.1392 3.66668 18.3059 1.83334 13.7226 1.83334H8.22258C3.63924 1.83334 1.80591 3.66668 1.80591 8.25001V13.75C1.80591 18.3333 3.63924 20.1667 8.22258 20.1667Z" stroke="#4B4B4B" stroke-width="1.5" stroke-linecap="round" stroke-linejoin="round"/>
<path d="M1.80591 11.6417L7.30591 11.6233C7.99341 11.6233 8.76341 12.1458 9.02007 12.7875L10.0651 15.4275C10.3034 16.0233 10.6792 16.0233 10.9176 15.4275L13.0167 10.1017C13.2184 9.58833 13.5942 9.57 13.8509 10.0558L14.8042 11.8617C15.0884 12.4025 15.8217 12.8425 16.4267 12.8425H20.1484" stroke="#4B4B4B" stroke-width="1.5" stroke-linecap="round" stroke-linejoin="round"/>
</svg>
