<?xml version="1.0" encoding="utf-8"?>
<!-- Uploaded to: SVG Repo, www.svgrepo.com, Generator: SVG Repo Mixer Tools -->
<svg fill="#FFFFFF" width="800px" height="800px" viewBox="-6 0 32 32" version="1.1" xmlns="http://www.w3.org/2000/svg">
<title>home</title>
<path d="M20.080 14l-7.16-7.16c-1.52-1.52-3.96-1.52-5.48 0l-7.2 7.16c-0.32 0.32-0.32 0.84 0 1.2 0.32 0.32 0.84 0.32 1.2 0l0.52-0.52v9.080c0 1.56 1.16 2.52 3.080 2.52 1.84 0 3.16-1.040 3.16-2.52v-5.24c0-0.52 0.24-1.4 1.96-1.4s1.96 0.88 1.96 1.4v5.24c0 0.64 0.24 1.2 0.68 1.64 0.56 0.56 1.44 0.88 2.48 0.88 1.92 0 3.080-0.96 3.080-2.52v-9.080l0.52 0.52c0.16 0.16 0.36 0.24 0.6 0.24 0.2 0 0.44-0.080 0.6-0.24 0.32-0.32 0.32-0.84 0-1.2zM16.68 23.76c0 0.56-0.48 0.84-1.4 0.84-0.56 0-1.040-0.16-1.28-0.4-0.12-0.12-0.16-0.28-0.16-0.48v-5.2c0-1.88-1.44-3.080-3.64-3.080s-3.64 1.2-3.64 3.080v5.24c0 0.84-1.4 0.84-1.48 0.84-1.4 0-1.4-0.6-1.4-0.84v-10.76l4.96-4.96c0.4-0.4 0.96-0.64 1.56-0.64s1.16 0.24 1.56 0.64l4.96 4.96-0.040 10.76z"></path>
</svg>