<svg width="21" height="22" viewBox="0 0 21 22" fill="none" xmlns="http://www.w3.org/2000/svg">
<path d="M8.75 20.1667H12.25C16.625 20.1667 18.375 18.3333 18.375 13.75V8.25001C18.375 3.66668 16.625 1.83334 12.25 1.83334H8.75C4.375 1.83334 2.625 3.66668 2.625 8.25001V13.75C2.625 18.3333 4.375 20.1667 8.75 20.1667Z" stroke="#FFFFFF" stroke-width="1.5" stroke-linecap="round" stroke-linejoin="round"/>
<path d="M14.4375 6.94833V7.865C14.4375 8.61667 13.8512 9.24 13.125 9.24H7.875C7.1575 9.24 6.5625 8.62583 6.5625 7.865V6.94833C6.5625 6.19667 7.14875 5.57333 7.875 5.57333H13.125C13.8512 5.57333 14.4375 6.1875 14.4375 6.94833Z" stroke="#FFFFFF" stroke-width="1.5" stroke-linecap="round" stroke-linejoin="round"/>
<path d="M7.1189 12.8333H7.1294M10.4955 12.8333H10.506M13.8721 12.8333H13.8826M7.1189 16.0417H7.1294M10.4955 16.0417H10.506M13.8721 16.0417H13.8826" stroke="#FFFFFF" stroke-width="2" stroke-linecap="round" stroke-linejoin="round"/>
</svg>
