<svg width="22" height="22" viewBox="0 0 22 22" fill="none" xmlns="http://www.w3.org/2000/svg">
<path d="M4.58333 9.16666C3.575 9.16666 2.75 9.99166 2.75 11C2.75 12.0083 3.575 12.8333 4.58333 12.8333C5.59167 12.8333 6.41667 12.0083 6.41667 11C6.41667 9.99166 5.59167 9.16666 4.58333 9.16666ZM17.4167 9.16666C16.4083 9.16666 15.5833 9.99166 15.5833 11C15.5833 12.0083 16.4083 12.8333 17.4167 12.8333C18.425 12.8333 19.25 12.0083 19.25 11C19.25 9.99166 18.425 9.16666 17.4167 9.16666ZM11 9.16666C9.99167 9.16666 9.16667 9.99166 9.16667 11C9.16667 12.0083 9.99167 12.8333 11 12.8333C12.0083 12.8333 12.8333 12.0083 12.8333 11C12.8333 9.99166 12.0083 9.16666 11 9.16666Z" stroke="#FFFFFF" stroke-width="1.5"/>
</svg>
