<svg width="22" height="22" viewBox="0 0 22 22" fill="none" xmlns="http://www.w3.org/2000/svg">
<path d="M7.94922 13.1358C7.94922 14.3183 8.85672 15.2717 9.98422 15.2717H12.2851C13.2659 15.2717 14.0634 14.4375 14.0634 13.4108C14.0634 12.2925 13.5776 11.8983 12.8534 11.6417L9.15922 10.3583C8.43505 10.1017 7.94922 9.7075 7.94922 8.58917C7.94922 7.5625 8.74672 6.72833 9.72755 6.72833H12.0284C13.1559 6.72833 14.0634 7.68167 14.0634 8.86417M10.9999 5.5V16.5" stroke="white" stroke-width="1.5" stroke-linecap="round" stroke-linejoin="round"/>
<path d="M13.7499 20.1667H8.24992C3.66659 20.1667 1.83325 18.3334 1.83325 13.75V8.25004C1.83325 3.66671 3.66659 1.83337 8.24992 1.83337H13.7499C18.3333 1.83337 20.1666 3.66671 20.1666 8.25004V13.75C20.1666 18.3334 18.3333 20.1667 13.7499 20.1667Z" stroke="white" stroke-width="1.5" stroke-linecap="round" stroke-linejoin="round"/>
</svg>
