<svg width="18" height="18" viewBox="0 0 18 18" fill="none" xmlns="http://www.w3.org/2000/svg">
<path d="M3.00005 6.00006H2.25005M15.75 6.00006H15M9.00005 2.25006V3.75006M7.87505 3.75006H10.125M4.50005 11.2501H6.75005M11.25 11.2501H13.5M11.6325 2.12256H6.36755C4.50005 2.12256 4.08755 3.05256 3.84755 4.19256L3.00005 8.25006H15L14.1525 4.19256C13.9125 3.05256 13.5 2.12256 11.6325 2.12256ZM16.4925 14.8651C16.575 15.7426 15.87 16.5001 14.97 16.5001H13.56C12.75 16.5001 12.6375 16.1551 12.495 15.7276L12.345 15.2776C12.135 14.6626 12 14.2501 10.92 14.2501H7.08005C6.00005 14.2501 5.84255 14.7151 5.65505 15.2776L5.50505 15.7276C5.36255 16.1551 5.25005 16.5001 4.44005 16.5001H3.03005C2.13005 16.5001 1.42505 15.7426 1.50755 14.8651L1.92755 10.2976C2.03255 9.17256 2.25005 8.25006 4.21505 8.25006H13.785C15.75 8.25006 15.9675 9.17256 16.0725 10.2976L16.4925 14.8651Z" stroke="white" stroke-width="1.5" stroke-linecap="round" stroke-linejoin="round"/>
</svg>
